# This file uses centimeters as units for non-parametric coordinates.

mtllib Stop Sign.mtl
g default
v 0.071414 0.012247 -0.183289
v 0.054658 0.012247 -0.208367
v 0.029581 0.012247 -0.225123
v 0.000000 0.012247 -0.231007
v -0.029581 0.012247 -0.225123
v -0.054658 0.012247 -0.208367
v -0.071414 0.012247 -0.183290
v -0.077298 0.012247 -0.153709
v -0.071414 0.012247 -0.124128
v -0.054658 0.012247 -0.099050
v -0.029581 0.012247 -0.082294
v -0.000000 0.012247 -0.076410
v 0.029581 0.012247 -0.082294
v 0.054658 0.012247 -0.099050
v 0.071414 0.012247 -0.124128
v 0.077298 0.012247 -0.153709
v 0.142829 0.012247 -0.212870
v 0.109317 0.012247 -0.263025
v 0.059162 0.012247 -0.296538
v 0.000000 0.012247 -0.308306
v -0.059162 0.012247 -0.296538
v -0.109316 0.012247 -0.263025
v -0.142829 0.012247 -0.212870
v -0.154597 0.012247 -0.153709
v -0.142829 0.012247 -0.094547
v -0.109317 0.012247 -0.044392
v -0.059162 0.012247 -0.010880
v -0.000000 0.012247 0.000888
v 0.059162 0.012247 -0.010880
v 0.109316 0.012247 -0.044392
v 0.142829 0.012247 -0.094547
v 0.154597 0.012247 -0.153709
v 0.142829 8.871058 -0.212870
v 0.109317 8.871058 -0.263025
v 0.059162 8.871058 -0.296538
v 0.000000 8.871058 -0.308306
v -0.059162 8.871058 -0.296538
v -0.109316 8.871058 -0.263025
v -0.142829 8.871058 -0.212870
v -0.154597 8.871058 -0.153709
v -0.142829 8.871058 -0.094547
v -0.109317 8.871058 -0.044392
v -0.059162 8.871058 -0.010880
v -0.000000 8.871058 0.000888
v 0.059162 8.871058 -0.010880
v 0.109316 8.871058 -0.044392
v 0.142829 8.871058 -0.094547
v 0.154597 8.871058 -0.153709
v 0.071414 8.871058 -0.183289
v 0.054658 8.871058 -0.208367
v 0.029581 8.871058 -0.225123
v 0.000000 8.871058 -0.231007
v -0.029581 8.871058 -0.225123
v -0.054658 8.871058 -0.208367
v -0.071414 8.871058 -0.183290
v -0.077298 8.871058 -0.153709
v -0.071414 8.871058 -0.124128
v -0.054658 8.871058 -0.099050
v -0.029581 8.871058 -0.082294
v -0.000000 8.871058 -0.076410
v 0.029581 8.871058 -0.082294
v 0.054658 8.871058 -0.099050
v 0.071414 8.871058 -0.124128
v 0.077298 8.871058 -0.153709
v 0.000000 0.012247 -0.153709
v 0.000000 8.871058 -0.153709
v 0.246906 8.796059 -0.028360
v -0.246906 8.796059 -0.028360
v -0.596084 8.446881 -0.028360
v -0.596084 7.953069 -0.028360
v -0.246906 7.603891 -0.028360
v 0.246906 7.603891 -0.028360
v 0.596084 7.953069 -0.028360
v 0.596084 8.446881 -0.028360
v 0.493812 9.392143 -0.028360
v -0.493812 9.392143 -0.028360
v -1.192168 8.693788 -0.028360
v -1.192168 7.706163 -0.028360
v -0.493812 7.007807 -0.028360
v 0.493812 7.007807 -0.028360
v 1.192168 7.706163 -0.028360
v 1.192168 8.693788 -0.028360
v 0.493812 9.392143 0.028360
v -0.493812 9.392143 0.028360
v -1.192168 8.693788 0.028360
v -1.192168 7.706163 0.028360
v -0.493812 7.007807 0.028360
v 0.493812 7.007807 0.028360
v 1.192168 7.706163 0.028360
v 1.192168 8.693788 0.028360
v 0.246906 8.796059 0.028360
v -0.246906 8.796059 0.028360
v -0.596084 8.446881 0.028360
v -0.596084 7.953069 0.028360
v -0.246906 7.603891 0.028360
v 0.246906 7.603891 0.028360
v 0.596084 7.953069 0.028360
v 0.596084 8.446881 0.028360
v 0.000000 8.199975 -0.028360
v 0.000000 8.199975 0.028360
vt 0.070097 0.001992
vt 0.076749 0.001992
vt 0.076749 0.998008
vt 0.070097 0.998008
vt 0.083401 0.001992
vt 0.083401 0.998008
vt 0.064458 0.001992
vt 0.064458 0.998008
vt 0.089040 0.001992
vt 0.089040 0.998008
vt 0.060691 0.001992
vt 0.060691 0.998008
vt 0.092808 0.001992
vt 0.092808 0.998008
vt 0.010995 0.001992
vt 0.017646 0.001992
vt 0.017646 0.998008
vt 0.010995 0.998008
vt 0.024298 0.001992
vt 0.024298 0.998008
vt 0.005356 0.001992
vt 0.005356 0.998008
vt 0.029937 0.001992
vt 0.029937 0.998008
vt 0.001588 0.001992
vt 0.001588 0.998008
vt 0.033705 0.001992
vt 0.033705 0.998008
vt 0.394595 0.191551
vt 0.394595 0.080510
vt 0.400973 0.080510
vt 0.400973 0.191551
vt 0.394595 0.001992
vt 0.400973 0.001992
vt 0.394595 0.270068
vt 0.400973 0.270068
vt 0.413472 0.080510
vt 0.413472 0.191551
vt 0.407095 0.191551
vt 0.407095 0.080510
vt 0.413472 0.270068
vt 0.407095 0.270068
vt 0.413472 0.001992
vt 0.407095 0.001992
vt 0.744983 0.016048
vt 0.743099 0.013228
vt 0.749245 0.007083
vt 0.753012 0.012722
vt 0.736954 0.019374
vt 0.740280 0.011344
vt 0.743606 0.003315
vt 0.745645 0.019374
vt 0.754336 0.019374
vt 0.736954 0.010683
vt 0.736954 0.001992
vt 0.744983 0.022699
vt 0.753012 0.026025
vt 0.733628 0.011344
vt 0.730302 0.003315
vt 0.743099 0.025519
vt 0.749245 0.031664
vt 0.730809 0.013228
vt 0.724663 0.007083
vt 0.740280 0.027403
vt 0.743606 0.035432
vt 0.728925 0.016048
vt 0.720895 0.012722
vt 0.736954 0.028065
vt 0.736954 0.036755
vt 0.728263 0.019374
vt 0.719572 0.019374
vt 0.733628 0.027403
vt 0.730302 0.035432
vt 0.728925 0.022699
vt 0.720895 0.026025
vt 0.730809 0.025519
vt 0.724663 0.031664
vt 0.784674 0.003315
vt 0.790313 0.007083
vt 0.784168 0.013228
vt 0.781348 0.011344
vt 0.794081 0.012722
vt 0.786052 0.016048
vt 0.778022 0.019374
vt 0.778022 0.001992
vt 0.778022 0.010683
vt 0.795404 0.019374
vt 0.786713 0.019374
vt 0.771371 0.003315
vt 0.774697 0.011344
vt 0.794081 0.026025
vt 0.786052 0.022699
vt 0.765732 0.007083
vt 0.771877 0.013228
vt 0.790313 0.031664
vt 0.784168 0.025519
vt 0.761964 0.012722
vt 0.769993 0.016048
vt 0.784674 0.035432
vt 0.781348 0.027403
vt 0.760641 0.019374
vt 0.769332 0.019374
vt 0.778022 0.036755
vt 0.778022 0.028064
vt 0.761964 0.026025
vt 0.769993 0.022699
vt 0.771371 0.035432
vt 0.774697 0.027403
vt 0.765732 0.031664
vt 0.771877 0.025519
vt 0.700951 0.001992
vt 0.700951 0.113033
vt 0.694574 0.113033
vt 0.694574 0.001992
vt 0.707073 0.113033
vt 0.707073 0.001992
vt 0.713450 0.001992
vt 0.713450 0.113033
vt 0.054352 0.998008
vt 0.047701 0.998008
vt 0.047701 0.001992
vt 0.054352 0.001992
vt 0.041049 0.998008
vt 0.041049 0.001992
vt 0.099973 0.001992
vt 0.106625 0.001992
vt 0.106625 0.998008
vt 0.099973 0.998008
vt 0.113277 0.001992
vt 0.113277 0.998008
vt 0.281413 0.069011
vt 0.225893 0.069011
vt 0.198133 0.001992
vt 0.309173 0.001992
vt 0.253653 0.136030
vt 0.186634 0.108270
vt 0.119615 0.080510
vt 0.320672 0.108270
vt 0.387691 0.080510
vt 0.186634 0.163790
vt 0.119615 0.191551
vt 0.320672 0.163790
vt 0.387691 0.191551
vt 0.225893 0.203049
vt 0.198133 0.270068
vt 0.281413 0.203049
vt 0.309173 0.270068
vt 0.609152 0.270068
vt 0.498111 0.270068
vt 0.525872 0.203049
vt 0.581392 0.203049
vt 0.419594 0.191551
vt 0.486613 0.163790
vt 0.553632 0.136030
vt 0.687670 0.191551
vt 0.620651 0.163790
vt 0.419594 0.080510
vt 0.486613 0.108270
vt 0.687670 0.080510
vt 0.620651 0.108270
vt 0.498111 0.001992
vt 0.525872 0.069011
vt 0.609152 0.001992
vt 0.581392 0.069011
vn 0.000000 -1.000000 -0.000000
vn 0.000000 -1.000000 0.000000
vn 0.000000 -1.000000 0.000000
vn 0.000000 -1.000000 -0.000000
vn 0.000000 -1.000000 0.000000
vn 0.000000 -1.000000 0.000000
vn 0.000000 -1.000000 0.000000
vn 0.000000 -1.000000 0.000000
vn 0.000000 -1.000000 -0.000000
vn 0.000000 -1.000000 -0.000000
vn 0.000000 -1.000000 -0.000000
vn 0.000000 -1.000000 -0.000000
vn 0.000000 -1.000000 -0.000000
vn 0.000000 -1.000000 0.000000
vn 0.000000 -1.000000 0.000000
vn 0.000000 -1.000000 0.000000
vn 0.000000 -1.000000 0.000000
vn 0.000000 -1.000000 0.000000
vn 0.000000 -1.000000 -0.000000
vn 0.000000 -1.000000 0.000000
vn 0.000000 -1.000000 0.000000
vn 0.000000 -1.000000 0.000000
vn 0.000000 -1.000000 0.000000
vn 0.000000 -1.000000 0.000000
vn 0.000000 -1.000000 0.000000
vn 0.000000 -1.000000 0.000000
vn 0.000000 -1.000000 0.000000
vn 0.000000 -1.000000 0.000000
vn 0.000000 -1.000000 0.000000
vn 0.000000 -1.000000 0.000000
vn 0.000000 -1.000000 0.000000
vn 0.000000 -1.000000 -0.000000
vn 0.923880 0.000000 -0.382683
vn 0.707107 0.000000 -0.707106
vn 0.707107 0.000000 -0.707106
vn 0.923880 0.000000 -0.382683
vn 0.382684 0.000000 -0.923879
vn 0.382684 0.000000 -0.923879
vn 0.000000 0.000000 -1.000000
vn 0.000000 0.000000 -1.000000
vn -0.382683 0.000000 -0.923880
vn -0.382683 0.000000 -0.923880
vn -0.707106 0.000000 -0.707107
vn -0.707106 0.000000 -0.707107
vn -0.923879 0.000000 -0.382684
vn -0.923879 0.000000 -0.382684
vn -1.000000 0.000000 -0.000000
vn -1.000000 0.000000 -0.000000
vn -0.923880 0.000000 0.382683
vn -0.923880 0.000000 0.382683
vn -0.707107 0.000000 0.707107
vn -0.707107 0.000000 0.707107
vn -0.382684 0.000000 0.923879
vn -0.382684 0.000000 0.923879
vn -0.000000 0.000000 1.000000
vn -0.000000 0.000000 1.000000
vn 0.382683 0.000000 0.923880
vn 0.382683 0.000000 0.923880
vn 0.707107 0.000000 0.707107
vn 0.707107 0.000000 0.707107
vn 0.923880 0.000000 0.382683
vn 0.923880 0.000000 0.382683
vn 1.000000 0.000000 0.000000
vn 1.000000 0.000000 0.000000
vn 0.000000 1.000000 0.000000
vn 0.000000 1.000000 0.000004
vn 0.000000 1.000000 0.000003
vn 0.000000 1.000000 0.000000
vn 0.000000 1.000000 0.000004
vn 0.000000 1.000000 0.000003
vn 0.000000 1.000000 -0.000003
vn 0.000000 1.000000 -0.000004
vn 0.000000 1.000000 -0.000003
vn 0.000000 1.000000 -0.000004
vn 0.000000 1.000000 0.000000
vn 0.000000 1.000000 0.000000
vn 0.000000 1.000000 0.000000
vn 0.000000 1.000000 0.000000
vn 0.000000 1.000000 0.000000
vn 0.000000 1.000000 0.000000
vn 0.000000 1.000000 0.000000
vn 0.000000 1.000000 0.000000
vn 0.000000 1.000000 0.000000
vn 0.000000 1.000000 0.000000
vn 0.000000 1.000000 -0.000004
vn 0.000000 1.000000 -0.000003
vn 0.000000 1.000000 -0.000007
vn 0.000000 1.000000 -0.000007
vn 0.000000 1.000000 0.000002
vn 0.000000 1.000000 0.000003
vn 0.000000 1.000000 0.000004
vn 0.000000 1.000000 0.000006
vn 0.000000 1.000000 0.000000
vn 0.000000 1.000000 0.000000
vn 0.000000 1.000000 0.000000
vn 0.000000 1.000000 0.000000
vn 0.000000 -1.000000 0.000000
vn 0.000000 1.000000 -0.000000
vn 0.000000 0.000000 -1.000000
vn -0.000000 0.000000 -1.000000
vn 0.000000 0.000000 -1.000000
vn 0.000000 0.000000 -1.000000
vn 0.000000 0.000000 -1.000000
vn 0.000000 0.000000 -1.000000
vn 0.000000 0.000000 -1.000000
vn 0.000000 0.000000 -1.000000
vn 0.000000 0.000000 -1.000000
vn 0.000000 0.000000 -1.000000
vn -0.000000 0.000000 -1.000000
vn 0.000000 0.000000 -1.000000
vn -0.000000 0.000000 -1.000000
vn 0.000000 0.000000 -1.000000
vn 0.000000 0.000000 -1.000000
vn 0.000000 0.000000 -1.000000
vn 0.000000 1.000000 0.000000
vn 0.000000 1.000000 0.000000
vn 0.000000 1.000000 0.000000
vn 0.000000 1.000000 0.000000
vn -0.707107 0.707107 0.000000
vn -0.707107 0.707107 0.000000
vn -0.707107 0.707107 0.000000
vn -0.707107 0.707107 0.000000
vn -1.000000 0.000000 0.000000
vn -1.000000 0.000000 0.000000
vn -1.000000 0.000000 0.000000
vn -1.000000 0.000000 0.000000
vn -0.707107 -0.707107 0.000000
vn -0.707107 -0.707107 0.000000
vn -0.707107 -0.707107 0.000000
vn -0.707107 -0.707107 0.000000
vn 0.000000 -1.000000 0.000000
vn 0.000000 -1.000000 0.000000
vn 0.000000 -1.000000 0.000000
vn 0.000000 -1.000000 0.000000
vn 0.707107 -0.707107 0.000000
vn 0.707107 -0.707107 0.000000
vn 0.707107 -0.707107 0.000000
vn 0.707107 -0.707107 0.000000
vn 1.000000 0.000000 0.000000
vn 1.000000 0.000000 0.000000
vn 1.000000 0.000000 0.000000
vn 1.000000 0.000000 0.000000
vn 0.707107 0.707107 0.000000
vn 0.707107 0.707107 0.000000
vn 0.707107 0.707107 0.000000
vn 0.707107 0.707107 0.000000
vn 0.000000 0.000000 1.000000
vn -0.000000 0.000000 1.000000
vn -0.000000 0.000000 1.000000
vn 0.000000 0.000000 1.000000
vn -0.000000 0.000000 1.000000
vn -0.000000 0.000000 1.000000
vn 0.000000 0.000000 1.000000
vn 0.000000 0.000000 1.000000
vn 0.000000 0.000000 1.000000
vn 0.000000 0.000000 1.000000
vn 0.000000 0.000000 1.000000
vn 0.000000 0.000000 1.000000
vn -0.000000 0.000000 1.000000
vn -0.000000 0.000000 1.000000
vn -0.000000 0.000000 1.000000
vn -0.000000 0.000000 1.000000
vn -0.000000 0.000000 -1.000000
vn 0.000000 0.000000 1.000000
s 1
g Sign
usemtl lambert2SG
f 1/45/1 2/46/2 18/47/3 17/48/4
f 2/46/2 3/50/5 19/51/6 18/47/3
f 3/50/5 4/54/7 20/55/8 19/51/6
f 4/54/7 5/58/9 21/59/10 20/55/8
f 5/58/9 6/62/11 22/63/12 21/59/10
f 6/62/11 7/66/13 23/67/14 22/63/12
f 7/66/13 8/70/15 24/71/16 23/67/14
f 8/70/15 9/74/17 25/75/18 24/71/16
f 9/74/17 10/76/19 26/77/20 25/75/18
f 10/76/19 11/72/21 27/73/22 26/77/20
f 11/72/21 12/68/23 28/69/24 27/73/22
f 12/68/23 13/64/25 29/65/26 28/69/24
f 13/64/25 14/60/27 30/61/28 29/65/26
f 14/60/27 15/56/29 31/57/30 30/61/28
f 15/56/29 16/52/31 32/53/32 31/57/30
f 16/52/31 1/45/1 17/48/4 32/53/32
s 2
f 17/19/33 18/23/34 34/24/35 33/20/36
f 18/23/34 19/27/37 35/28/38 34/24/35
f 19/119/37 20/120/39 36/121/40 35/122/38
f 20/120/39 21/123/41 37/124/42 36/121/40
f 21/11/41 22/7/43 38/8/44 37/12/42
f 22/7/43 23/1/45 39/4/46 38/8/44
f 23/1/45 24/2/47 40/3/48 39/4/46
f 24/2/47 25/5/49 41/6/50 40/3/48
f 25/5/49 26/9/51 42/10/52 41/6/50
f 26/9/51 27/13/53 43/14/54 42/10/52
f 27/125/53 28/126/55 44/127/56 43/128/54
f 28/126/55 29/129/57 45/130/58 44/127/56
f 29/25/57 30/21/59 46/22/60 45/26/58
f 30/21/59 31/15/61 47/18/62 46/22/60
f 31/15/61 32/16/63 48/17/64 47/18/62
f 32/16/63 17/19/33 33/20/36 48/17/64
s 3
f 33/78/65 34/79/66 50/80/67 49/81/68
f 34/79/66 35/82/69 51/83/70 50/80/67
f 35/82/69 36/87/71 52/88/72 51/83/70
f 36/87/71 37/91/73 53/92/74 52/88/72
f 37/91/73 38/95/75 54/96/76 53/92/74
f 38/95/75 39/99/77 55/100/78 54/96/76
f 39/99/77 40/103/79 56/104/80 55/100/78
f 40/103/79 41/107/81 57/108/82 56/104/80
f 41/107/81 42/109/83 58/110/84 57/108/82
f 42/109/83 43/105/85 59/106/86 58/110/84
f 43/105/85 44/101/87 60/102/88 59/106/86
f 44/101/87 45/97/89 61/98/90 60/102/88
f 45/97/89 46/93/91 62/94/92 61/98/90
f 46/93/91 47/89/93 63/90/94 62/94/92
f 47/89/93 48/85/95 64/86/96 63/90/94
f 48/85/95 33/78/65 49/81/68 64/86/96
s 1
f 2/46/2 1/45/1 65/49/97
f 3/50/5 2/46/2 65/49/97
f 4/54/7 3/50/5 65/49/97
f 5/58/9 4/54/7 65/49/97
f 6/62/11 5/58/9 65/49/97
f 7/66/13 6/62/11 65/49/97
f 8/70/15 7/66/13 65/49/97
f 9/74/17 8/70/15 65/49/97
f 10/76/19 9/74/17 65/49/97
f 11/72/21 10/76/19 65/49/97
f 12/68/23 11/72/21 65/49/97
f 13/64/25 12/68/23 65/49/97
f 14/60/27 13/64/25 65/49/97
f 15/56/29 14/60/27 65/49/97
f 16/52/31 15/56/29 65/49/97
f 1/45/1 16/52/31 65/49/97
s 3
f 49/81/68 50/80/67 66/84/98
f 50/80/67 51/83/70 66/84/98
f 51/83/70 52/88/72 66/84/98
f 52/88/72 53/92/74 66/84/98
f 53/92/74 54/96/76 66/84/98
f 54/96/76 55/100/78 66/84/98
f 55/100/78 56/104/80 66/84/98
f 56/104/80 57/108/82 66/84/98
f 57/108/82 58/110/84 66/84/98
f 58/110/84 59/106/86 66/84/98
f 59/106/86 60/102/88 66/84/98
f 60/102/88 61/98/90 66/84/98
f 61/98/90 62/94/92 66/84/98
f 62/94/92 63/90/94 66/84/98
f 63/90/94 64/86/96 66/84/98
f 64/86/96 49/81/68 66/84/98
s 4
f 67/131/99 68/132/100 76/133/101 75/134/102
f 68/132/100 69/136/103 77/137/104 76/133/101
f 69/136/103 70/140/105 78/141/106 77/137/104
f 70/140/105 71/144/107 79/145/108 78/141/106
f 71/144/107 72/146/109 80/147/110 79/145/108
f 72/146/109 73/142/111 81/143/112 80/147/110
f 73/142/111 74/138/113 82/139/114 81/143/112
f 74/138/113 67/131/99 75/134/102 82/139/114
s off
f 75/111/115 76/112/116 84/113/117 83/114/118
f 76/35/119 77/29/120 85/32/121 84/36/122
f 77/29/123 78/30/124 86/31/125 85/32/126
f 78/30/127 79/33/128 87/34/129 86/31/130
f 79/115/131 80/116/132 88/117/133 87/118/134
f 80/43/135 81/37/136 89/40/137 88/44/138
f 81/37/139 82/38/140 90/39/141 89/40/142
f 82/38/143 75/41/144 83/42/145 90/39/146
s 5
f 83/148/147 84/149/148 92/150/149 91/151/150
f 84/149/148 85/152/151 93/153/152 92/150/149
f 85/152/151 86/157/153 94/158/154 93/153/152
f 86/157/153 87/161/155 95/162/156 94/158/154
f 87/161/155 88/163/157 96/164/158 95/162/156
f 88/163/157 89/159/159 97/160/160 96/164/158
f 89/159/159 90/155/161 98/156/162 97/160/160
f 90/155/161 83/148/147 91/151/150 98/156/162
s 4
f 68/132/100 67/131/99 99/135/163
f 69/136/103 68/132/100 99/135/163
f 70/140/105 69/136/103 99/135/163
f 71/144/107 70/140/105 99/135/163
f 72/146/109 71/144/107 99/135/163
f 73/142/111 72/146/109 99/135/163
f 74/138/113 73/142/111 99/135/163
f 67/131/99 74/138/113 99/135/163
s 5
f 91/151/150 92/150/149 100/154/164
f 92/150/149 93/153/152 100/154/164
f 93/153/152 94/158/154 100/154/164
f 94/158/154 95/162/156 100/154/164
f 95/162/156 96/164/158 100/154/164
f 96/164/158 97/160/160 100/154/164
f 97/160/160 98/156/162 100/154/164
f 98/156/162 91/151/150 100/154/164
